<?xml version="1.0" standalone="no"?>
<!DOCTYPE svg PUBLIC "-//W3C//DTD SVG 20010904//EN"
 "http://www.w3.org/TR/2001/REC-SVG-20010904/DTD/svg10.dtd">
<svg version="1.0" xmlns="http://www.w3.org/2000/svg"
 width="768.000000pt" height="444.000000pt" viewBox="0 0 768.000000 444.000000"
 preserveAspectRatio="xMidYMid meet">
<metadata>
Created by potrace 1.10, written by Peter Selinger 2001-2011
</metadata>
<g transform="translate(0.000000,444.000000) scale(0.100000,-0.100000)"
fill="#bfc214" stroke="none">
<path d="M4235 4424 c-8 -12 -36 -18 -105 -24 -52 -5 -126 -13 -165 -20 -125
-20 -171 -26 -755 -101 -91 -12 -199 -25 -240 -29 -86 -9 -189 -24 -305 -46
-44 -8 -98 -14 -120 -14 -22 0 -56 -4 -75 -10 -19 -5 -75 -13 -125 -19 -49 -5
-162 -20 -250 -31 -88 -12 -205 -27 -260 -33 l-100 -12 -3 -1836 -2 -1836 69
-7 c39 -3 82 -11 96 -16 14 -6 50 -10 78 -10 29 0 70 -5 92 -11 22 -5 78 -14
125 -19 47 -5 171 -20 275 -35 105 -14 224 -30 265 -35 41 -5 122 -16 180 -25
58 -9 139 -20 180 -25 41 -4 102 -13 135 -19 99 -17 205 -32 285 -41 41 -5
127 -16 190 -25 63 -9 151 -20 195 -26 111 -14 195 -25 297 -39 70 -10 91 -10
103 0 12 10 15 43 15 180 0 144 2 169 16 174 9 3 320 6 692 6 607 0 681 2 722
17 72 26 126 76 160 147 l30 64 0 1585 0 1584 -21 49 c-12 27 -45 71 -73 99
-90 87 -73 85 -855 85 -530 0 -671 3 -672 13 0 6 0 90 1 185 l1 172 -33 0
c-19 0 -37 -7 -43 -16z m1473 -534 c18 -11 37 -31 42 -44 5 -13 14 -27 19 -31
8 -4 11 -474 11 -1556 0 -1540 0 -1550 -20 -1590 -12 -22 -35 -49 -53 -59 -31
-19 -54 -20 -702 -20 -368 0 -676 4 -682 8 -10 6 -13 352 -13 1651 0 903 2
1647 5 1652 4 5 280 9 683 9 659 0 678 -1 710 -20z m-2008 -1037 c3 -3 7 -167
10 -366 l5 -362 176 -3 c125 -2 180 -6 187 -15 5 -7 7 -44 3 -87 l-6 -75 -219
4 c-120 2 -250 6 -290 10 l-71 6 -3 428 c-1 277 1 435 8 447 8 16 24 20 83 22
69 4 106 1 117 -9z m-666 -4 c117 -21 189 -67 252 -161 69 -102 94 -232 70
-365 -18 -103 -54 -175 -117 -235 -27 -26 -49 -54 -49 -62 0 -9 19 -18 53 -26
74 -18 117 -37 117 -53 0 -22 -47 -131 -58 -135 -6 -2 -32 6 -58 17 -26 12
-51 21 -56 21 -10 0 -25 6 -138 58 -76 34 -119 48 -177 56 -147 21 -278 148
-311 301 -42 190 -4 350 110 471 58 63 112 91 203 110 78 16 91 16 159 3z
m-652 -29 c20 -6 39 -17 42 -25 6 -17 -19 -124 -33 -138 -5 -5 -34 -2 -70 8
-102 29 -192 2 -199 -60 -5 -36 23 -65 96 -100 160 -77 160 -77 209 -141 26
-35 28 -44 28 -129 -1 -88 -2 -93 -35 -140 -53 -72 -116 -104 -226 -111 -89
-6 -210 13 -241 38 -30 24 -2 158 32 158 9 0 30 -8 48 -17 22 -11 58 -17 113
-17 101 -1 124 14 124 79 0 52 -11 62 -115 110 -113 52 -157 86 -188 143 -35
65 -36 136 -3 207 33 72 90 116 186 144 41 12 179 7 232 -9z"/>
<path d="M4785 2810 c-80 -12 -207 -45 -250 -66 -19 -9 -50 -32 -69 -51 -34
-35 -34 -37 -40 -147 -3 -61 -5 -274 -3 -473 l2 -362 30 -31 c60 -63 162 -111
307 -145 77 -17 341 -21 383 -5 14 5 49 14 78 19 103 18 217 78 263 137 l29
39 -1 255 c-1 140 -1 280 -1 310 1 30 0 122 0 204 -2 148 -2 149 -31 185 -68
85 -221 129 -472 135 -91 3 -192 1 -225 -4z m-120 -384 c254 -53 574 -35 729
41 68 33 76 27 76 -52 0 -60 -3 -68 -35 -104 -93 -103 -321 -156 -566 -133
-182 18 -289 56 -363 128 -34 33 -36 38 -36 104 0 46 4 70 12 72 7 3 35 -6 63
-18 28 -13 82 -30 120 -38z m-90 -266 c46 -22 92 -40 102 -40 10 0 40 -7 67
-15 71 -22 374 -21 464 1 82 20 135 41 185 72 59 36 71 28 75 -47 2 -36 -2
-77 -8 -91 -21 -51 -114 -103 -255 -146 -85 -25 -401 -26 -459 -1 -21 9 -47
17 -57 17 -30 0 -162 66 -189 95 -20 21 -25 39 -28 95 -4 67 0 100 13 100 4 0
44 -18 90 -40z m-45 -274 c119 -80 422 -119 635 -81 97 17 201 50 236 76 15
10 37 19 48 19 20 0 21 -5 21 -79 l0 -78 -42 -40 c-51 -46 -110 -76 -193 -98
-99 -26 -291 -37 -397 -24 -164 21 -271 62 -331 128 -36 39 -37 44 -37 114 0
97 4 101 60 63z"/>
<path d="M2833 2645 c-56 -60 -83 -135 -83 -233 0 -178 77 -292 196 -292 104
0 171 77 194 222 21 131 -15 259 -90 318 -34 27 -45 30 -106 30 -68 -1 -69 -1
-111 -45z"/>
</g>
</svg>
